<?xml version="1.0" encoding="UTF-8"?>
<svg width="52px" height="60px" viewBox="0 0 52 60" version="1.1" xmlns="http://www.w3.org/2000/svg" xmlns:xlink="http://www.w3.org/1999/xlink">
    <!-- Generator: Sketch 59.1 (86144) - https://sketch.com -->
    <title>Debian</title>
    <desc>Created with Sketch.</desc>
    <g id="Page-1" stroke="none" stroke-width="1" fill="none" fill-rule="evenodd">
        <g id="Debian" fill="#00106A" fill-rule="nonzero">
            <path d="M29.508,59.115 C20.459,55.869 15.148,51.935 9.246,42.984 C7.77,40.524 5.115,35.114 5.213,27.934 C5.016,20.852 8.557,12.689 15.246,8.262 C21.738,3.639 30.098,3.541 35.016,5.41 C41.016,7.77 45.049,12.787 46.328,18.098 C47.803,23.213 46.328,31.672 39.246,35.115 C36,36.885 31.77,37.18 28.525,35.902 C25.18,34.525 22.82,31.672 22.033,28.623 C20.263,21.836 25.377,18.197 27.639,17.803 C36.787,14.754 41.509,29.115 30.689,30.295 C35.607,31.967 40.623,26.951 39.639,21.836 C39.639,16.82 33.443,11.705 26.557,13.77 C24.787,14.262 22.033,15.541 19.967,18.295 C17.803,21.049 16.82,25.475 17.902,29.705 C18.984,34.033 22.328,38.065 26.951,39.935 C31.672,41.705 36.885,41.213 41.213,38.951 C50.459,34.426 52.328,23.311 50.459,17.115 C48.885,10.525 45.246,7.574 45.443,7.475 C45.344,7.672 42.787,3.738 36.492,1.377 C30.295,-0.885 20.557,-0.689 12.885,4.721 C5.016,9.934 0.69,19.87 0.984,27.934 C0.885,36.098 3.934,42.394 5.607,45.148 C12.295,55.377 19.967,58.623 29.508,59.115" id="Path"></path>
        </g>
    </g>
</svg>